<svg id="Layer_1" data-name="Layer 1" xmlns="http://www.w3.org/2000/svg" viewBox="0 0 400 471.1"><defs><style>.cls-1{fill:#a8dbe4;fill-rule:evenodd;}</style></defs><title>SpyWolf_Network_Icon</title><g id="Camada_4" data-name="Camada 4"><path class="cls-1" d="M361.9,222V2.3L251.4,126.7H151.9L41.3,2.3V222L13.6,308.5l104.3,74.6,32.3,78.5H253l32.3-78.5,104.3-74.6ZM332,78.9V193.2L275.8,144Zm-260.8,0L127.4,144,71.2,193.2Zm114,355.3H169.3l-33.5-80.4L47.7,296.1,64.3,250l121,72.8V434.2Zm16.4-137.4-121-74,75.9-66.4h90l75.9,66.4Zm65.8,57-33.5,80.4H218V322.8L339,250l16.6,46.1Z"/></g></svg>