<svg id="svg" xmlns="http://www.w3.org/2000/svg" viewBox="0 0 2299.6 418"><defs><style>.cls-1{fill:#163038;}.cls-2{fill:#a8dbe4;fill-rule:evenodd;}</style></defs><title>SpyWolf_Network_Logo</title><path class="cls-1" d="M522.2,185.6c-1.9-12.1-12.2-28.8-35.7-28.8-18.9,0-32.5,12.3-32.5,28,0,12.2,7.4,21.4,21.7,24.5l25.1,5.4c28,6.2,43.7,23.8,43.7,47.3,0,26.2-22.3,49.9-58.2,49.9-40.6,0-59.8-26.2-62.9-50.1l22.3-7.2c1.7,18.8,15,36.1,40.4,36.1,23.2,0,34.7-12.1,34.7-26.8,0-12.1-8.3-22.5-25.2-26.1l-24-5.2c-24-5.2-41.1-20.9-41.1-46.1s24.5-50.1,55.6-50.1c38,0,53.2,23.5,57,41.8Z"/><path class="cls-1" d="M565.1,353.4V194.1h21.6v17.8c6.2-11.4,19.8-20.4,38.3-20.4,34.1,0,52.5,26.4,52.5,59.6s-19.8,60.3-53.2,60.3c-17.6,0-30.9-8.4-37.1-18.5v60.5Zm55.8-142.2c-20.4,0-33.9,17.1-33.9,39.9s13.5,40.3,33.9,40.3,33.8-16.8,33.8-40.3S641.8,211.2,620.9,211.2Z"/><path class="cls-1" d="M703.3,356l28.5-60.2L682.6,194.1h25.7L743.9,273l34.2-78.9H802L727.8,356Z"/><path class="cls-1" d="M1013.3,140h24l-48,168.3H965.4L921.5,171.8,878,308.3H854.8L806.1,140h24l37,131.8L909.4,140h24.4L977,273.2Z"/><path class="cls-1" d="M1157,251.1c0,34.9-24.2,60.8-58.4,60.8s-58.4-25.9-58.4-60.8,24.2-60.6,58.4-60.6S1157,216.4,1157,251.1Zm-22.8,0c0-26.3-16.6-40.6-35.6-40.6s-35.6,14.3-35.6,40.6,16.6,40.8,35.6,40.8,35.6-14.2,35.6-40.8Z"/><path class="cls-1" d="M1183.6,308.3V136.4h22.3V308.3Z"/><path class="cls-1" d="M1271.9,214.3v94h-23.1v-94h-21.1V194.1h21.1V174.9c0-25.4,16.9-39.2,37.5-39.2,7.6,0,12.4,1.6,13.4,2.3v20a28.4,28.4,0,0,0-9.8-1.4c-7.8,0-18,3.8-18,19.4v18.1h27.5v20.2Z"/><path class="cls-1" d="M1323.6,276.5a16.4,16.4,0,0,1,16.6,16.4v.2a16.3,16.3,0,0,1-16.2,16.4h-.4a16.1,16.1,0,0,1-16.3-15.9v-.5a16.2,16.2,0,0,1,15.9-16.6Z"/><path class="cls-1" d="M1490.5,308.3l-90.9-137.2V308.3h-23.2V140h31.1l83.9,129.1V140h23.3V308.3Z"/><path class="cls-1" d="M1652.7,275.8c-6.4,20.2-24.7,36.1-51.3,36.1-30.7,0-57.5-22.3-57.5-61,0-35.9,25.9-60.4,54.6-60.4,35.1,0,54.9,24.2,54.9,59.9a55.2,55.2,0,0,1-.5,7.1H1567c.4,20.4,15.2,34.6,34.4,34.6s27.8-10.1,32-23Zm-22.6-36.4c-.5-16.4-11.2-29.1-31.3-29.1s-30.2,14.5-31.1,29.1Z"/><path class="cls-1" d="M1709.9,194.1h24.6v20.2h-24.6v59.4c0,10.4,4.3,15.6,15.9,15.6a42.1,42.1,0,0,0,8.7-.9v18.9c-1.8.8-7.6,2.2-15.2,2.2-19.4,0-31.8-11.9-31.8-32.6V214.3h-21.8V194.1h6.2c12.3,0,17.5-7.6,17.5-17.6V158h20.5Z"/><path class="cls-1" d="M1852.1,194.1l29.7,86,25.1-86h23.5l-37.1,114.2h-23L1840,221.4l-29.7,86.9h-23.5l-37.5-114.2h24.4l25.6,86,29.7-86Z"/><path class="cls-1" d="M2056,251.1c0,34.9-24.2,60.8-58.4,60.8s-58.4-25.9-58.4-60.8,24.2-60.6,58.4-60.6S2056,216.4,2056,251.1Zm-22.8,0c0-26.3-16.6-40.6-35.6-40.6s-35.6,14.3-35.6,40.6,16.6,40.8,35.6,40.8S2033.2,277.7,2033.2,251.1Z"/><path class="cls-1" d="M2146,216.6a79.3,79.3,0,0,0-9.8-.7c-18.7,0-31.3,10-31.3,35.2v57.2h-22.4V194.1h21.9V214c8.3-17.5,22.6-21.8,34.2-21.8a36.4,36.4,0,0,1,7.4.7Z"/><path class="cls-1" d="M2221.4,242.3l49.6,66h-27.9L2205.8,258l-15.9,15.9v34.4h-22.1V136.4h22.1V244.7l49.3-50.6h30.9Z"/><g id="Camada_4" data-name="Camada 4"><path class="cls-2" d="M290.9,201.3V30.5l-86.7,96.7H126.1L39.2,30.5V201.3L17.5,268.5l81.9,58,25.3,61h80.7l25.4-61,81.9-58ZM267.4,90v88.9l-44.1-38.3ZM62.7,90l44.1,50.6L62.7,178.9Zm89.5,276.2H139.7l-26.3-62.5L44.3,258.9l13-35.9,95,56.6v86.6Zm12.9-106.8-95-57.5,59.6-51.6h70.6l59.6,51.6Zm51.6,44.3-26.3,62.5H177.9V279.6l95-56.6L286,258.9Z"/></g></svg>